<svg width="459" height="155" viewBox="0 0 459 155" fill="none" xmlns="http://www.w3.org/2000/svg">
<path d="M443.5 -0.000488281C451.784 -0.000488281 458.5 6.71537 458.5 14.9995C458.5 23.2838 451.784 29.9995 443.5 29.9995C441.095 29.9995 438.823 29.4331 436.809 28.4272L317.136 117.327C317.371 118.178 317.5 119.074 317.5 120C317.5 125.522 313.023 130 307.5 130C301.977 130 297.5 125.522 297.5 120C297.5 119.713 297.514 119.43 297.538 119.15L206.168 88.4155C204.334 90.6056 201.58 91.9995 198.5 91.9995C196.01 91.9995 193.734 91.0875 191.983 89.5815L0 155L188.504 82.1675C188.503 82.1117 188.5 82.0555 188.5 81.9995C188.5 76.4768 192.977 71.9995 198.5 71.9995C204.023 71.9995 208.5 76.4768 208.5 81.9995C208.5 82.2884 208.484 82.5743 208.46 82.8569L299.826 113.589C301.661 111.396 304.417 110 307.5 110C309.549 110 311.453 110.617 313.039 111.674L429.398 20.1255C428.817 18.5262 428.5 16.7997 428.5 14.9995C428.5 6.71537 435.216 -0.000488281 443.5 -0.000488281Z" fill="white"/>
</svg>
