<svg width="32" height="32" viewBox="0 0 32 32" fill="none" xmlns="http://www.w3.org/2000/svg">
<rect width="32" height="32" rx="16" fill="#599CFF"/>
<path d="M12.1 8V16H11.3C10.8582 16 10.5 16.3582 10.5 16.8C10.5 17.2418 10.8582 17.6 11.3 17.6H12.1V19.2H11.3C10.8582 19.2 10.5 19.5582 10.5 20C10.5 20.4418 10.8582 20.8 11.3 20.8H12.1V23.2C12.1 23.6418 12.4582 24 12.9 24C13.3418 24 13.7 23.6418 13.7 23.2V20.8H16.9C17.3418 20.8 17.7 20.4418 17.7 20C17.7 19.5582 17.3418 19.2 16.9 19.2H13.7V17.6H18.5C21.14 17.6 23.3 15.44 23.3 12.8C23.3 10.16 21.14 8 18.5 8H12.1ZM13.7 9.6H18.5C20.2752 9.6 21.7 11.0248 21.7 12.8C21.7 14.5752 20.2752 16 18.5 16H13.7V9.6Z" fill="white"/>
</svg>
