<svg width="32" height="32" viewBox="0 0 32 32" fill="none" xmlns="http://www.w3.org/2000/svg">
<rect width="32" height="32" rx="16" fill="#599CFF"/>
<path d="M10.0104 21.9903C12.02 23.904 14.4128 23.1384 15.3704 22.3631C15.8648 21.9623 16.088 21.7031 16.2792 21.5111C16.9488 20.8894 16.9064 20.267 16.4712 19.7694C16.296 19.5702 15.1784 18.4965 14.1064 17.3957C13.5512 16.8404 13.1688 16.4484 12.8408 16.1316C12.4032 15.6948 12.02 15.194 11.4456 15.2084C10.9192 15.2084 10.5368 15.6724 10.0576 16.1516C9.5072 16.702 9.1008 17.3957 8.9576 18.0181C8.5264 19.8366 9.1968 21.1287 10.0104 21.9903ZM10.0104 21.9903L8 24M21.9896 10.0121C19.9792 8.0968 17.5944 8.87604 16.6376 9.65208C16.1416 10.0537 15.9192 10.3129 15.7272 10.5049C15.0576 11.1274 15.1 11.7498 15.536 12.2474C15.5984 12.3194 15.784 12.5034 16.044 12.7626M21.9896 10.0121C22.8032 10.8737 23.4824 12.1802 23.0512 14.0003C22.9072 14.6227 22.5008 15.3164 21.9504 15.8676C21.472 16.346 21.0888 16.8108 20.5624 16.8108C19.988 16.8252 19.6904 16.4092 19.2512 15.9724M21.9896 10.0121L24 8M16.044 12.7626C16.5088 13.2227 17.2144 13.9163 17.9008 14.6219C18.456 15.1772 18.9232 15.6556 19.2512 15.9716L18.0016 17.1909M16.044 12.7626L14.8096 14.0043" stroke="white" stroke-linecap="round" stroke-linejoin="round"/>
</svg>
