<svg width="32" height="32" viewBox="0 0 32 32" fill="none" xmlns="http://www.w3.org/2000/svg">
<rect width="32" height="32" rx="16" fill="#599CFF"/>
<path d="M19.9424 8.17139C20.8629 8.17147 21.6322 8.93635 21.5332 9.8667C21.2944 12.1584 20.3813 13.3034 19.5303 14.1118C19.3261 14.3058 19.1198 14.4863 18.9453 14.644C18.7657 14.8065 18.6131 14.9512 18.4873 15.0962C18.2451 15.3756 18.1143 15.6414 18.1143 16.0005C18.1143 16.3616 18.2443 16.6304 18.4844 16.9126C18.609 17.059 18.7604 17.2048 18.9385 17.3687C19.111 17.5274 19.3162 17.7093 19.5186 17.9038C20.3626 18.715 21.2747 19.8584 21.5332 22.1313C21.6393 23.0662 20.86 23.8285 19.9424 23.8286H12.0576C11.1401 23.8286 10.3602 23.0664 10.4668 22.1313C10.7252 19.8579 11.6383 18.7232 12.4824 17.9165C12.9166 17.5017 13.2492 17.2418 13.5147 16.9282C13.7536 16.6458 13.8857 16.3725 13.8858 16.0005C13.8857 15.6304 13.7529 15.3603 13.5117 15.0806C13.3862 14.935 13.2342 14.7904 13.0547 14.6284C12.8809 14.4716 12.6745 14.2916 12.4707 14.0991C11.6193 13.2951 10.7056 12.1588 10.4668 9.86572C10.3699 8.93674 11.1362 8.17139 12.0576 8.17139H19.9424ZM12.0576 8.97217C11.5649 8.97217 11.2198 9.37037 11.2627 9.78271C11.4773 11.8441 12.2737 12.8137 13.0196 13.5181C13.215 13.7027 13.401 13.8624 13.5908 14.0337C13.775 14.1999 13.9584 14.3728 14.1182 14.5581C14.4475 14.94 14.6855 15.3888 14.6856 16.0005C14.6855 16.6101 14.4515 17.0601 14.126 17.4448C13.8267 17.7985 13.3949 18.1509 13.0352 18.4946C12.2915 19.2052 11.4941 20.1772 11.2617 22.2222C11.2156 22.6278 11.5609 23.0288 12.0576 23.0288H19.9424C20.4389 23.0287 20.7842 22.6279 20.7383 22.2222C20.5057 20.1764 19.7079 19.195 18.9639 18.48C18.7694 18.2931 18.5846 18.1305 18.3965 17.9575C18.214 17.7896 18.0328 17.6166 17.875 17.4312C17.5503 17.0494 17.3145 16.6035 17.3145 16.0005C17.3145 15.3955 17.5545 14.9506 17.8828 14.5718C18.0423 14.3879 18.2254 14.2164 18.4092 14.0503C18.5984 13.8793 18.7845 13.717 18.9795 13.5317C19.7256 12.823 20.5237 11.8446 20.7383 9.78271V9.78174C20.782 9.37088 20.4359 8.97225 19.9424 8.97217H12.0576ZM18.5567 12.0005C18.857 12.0005 18.922 12.2656 18.7852 12.4556C17.9577 13.6068 16.5716 13.1448 16.5713 13.8569V17.5005C16.5719 18.5905 18.5617 19.179 19.4434 20.2456C19.7984 20.6756 19.674 21.2856 19.1182 21.2856H12.8975C12.3406 21.2855 12.1837 20.6432 12.5742 20.2446C13.5198 19.2862 15.4282 18.5995 15.4287 17.5005V13.8569C15.4285 13.1484 14.072 13.6068 13.2324 12.4575C13.0939 12.2679 13.1078 12.0005 13.46 12.0005H18.5567Z" fill="white"/>
</svg>
