<svg width="32" height="32" viewBox="0 0 32 32" fill="none" xmlns="http://www.w3.org/2000/svg">
<rect x="0.5" y="0.5" width="31" height="31" rx="15.5" fill="#599CFF"/>
<rect x="0.5" y="0.5" width="31" height="31" rx="15.5" stroke="white"/>
<path d="M21.6 19.8C22.7312 19.8 23.2968 19.8 23.648 19.448C24 19.0968 24 18.5312 24 17.4C24 16.2688 24 15.7032 23.648 15.352C23.2976 15 22.732 15 21.6 15M10.4 19.8C9.2688 19.8 8.7032 19.8 8.352 19.448C8 19.0976 8 18.532 8 17.4C8 16.268 8 15.7032 8.352 15.352C8.7024 15 9.268 15 10.4 15M16 9.4C16.3183 9.4 16.6235 9.27357 16.8485 9.04853C17.0736 8.82348 17.2 8.51826 17.2 8.2C17.2 7.88174 17.0736 7.57652 16.8485 7.35147C16.6235 7.12643 16.3183 7 16 7C15.6817 7 15.3765 7.12643 15.1515 7.35147C14.9264 7.57652 14.8 7.88174 14.8 8.2C14.8 8.51826 14.9264 8.82348 15.1515 9.04853C15.3765 9.27357 15.6817 9.4 16 9.4ZM16 9.4V11.8M13.6 15.8V16.6M18.4 15.8V16.6M21.6 18.2V16.6C21.6 14.3376 21.6 13.2056 20.8968 12.5032C20.1944 11.8 19.0624 11.8 16.8 11.8H15.2C12.9376 11.8 11.8056 11.8 11.1032 12.5032C10.4 13.2056 10.4 14.3376 10.4 16.6V18.2C10.4 20.4624 10.4 21.5944 11.1032 22.2968C11.8056 23 12.9376 23 15.2 23H16.8C19.0624 23 20.1944 23 20.8968 22.2968C21.6 21.5944 21.6 20.4624 21.6 18.2Z" stroke="white" stroke-linecap="round" stroke-linejoin="round"/>
<path d="M14.4004 19.4004C14.4004 19.4004 14.934 19.8004 16.0004 19.8004C17.0668 19.8004 17.6004 19.4004 17.6004 19.4004" stroke="white" stroke-linecap="round" stroke-linejoin="round"/>
</svg>
