<svg width="33" height="32" viewBox="0 0 33 32" fill="none" xmlns="http://www.w3.org/2000/svg">
<rect x="0.5" width="32" height="32" rx="16" fill="#599CFF"/>
<path d="M22.6707 16.0001C22.6707 15.8109 22.6625 15.6299 22.6461 15.4406L24.1764 14.2805C24.5055 14.0337 24.596 13.573 24.3903 13.2109L22.8518 10.5534C22.7531 10.3791 22.5935 10.2475 22.4037 10.1837C22.2139 10.1199 22.0072 10.1285 21.8233 10.2078L20.0543 10.9566C19.7499 10.7426 19.429 10.5534 19.0917 10.3971L18.8531 8.4965C18.8037 8.08511 18.45 7.77246 18.0386 7.77246H14.9697C14.55 7.77246 14.1963 8.08511 14.1469 8.4965L13.9083 10.3971C13.571 10.5534 13.2501 10.7426 12.9457 10.9566L11.1767 10.2078C10.7982 10.0433 10.3539 10.1914 10.1482 10.5534L8.60967 13.2192C8.40398 13.5812 8.49449 14.0337 8.82359 14.2888L10.3539 15.4489C10.3196 15.8183 10.3196 16.1902 10.3539 16.5596L8.82359 17.7197C8.49449 17.9665 8.40398 18.4273 8.60967 18.7893L10.1482 21.4468C10.3539 21.8089 10.7982 21.9569 11.1767 21.7924L12.9457 21.0437C13.2501 21.2576 13.571 21.4468 13.9083 21.6032L14.1469 23.5037C14.1963 23.9151 14.55 24.2278 14.9614 24.2278H18.0303C18.4417 24.2278 18.7955 23.9151 18.8449 23.5037L19.0835 21.6032C19.4208 21.4468 19.7417 21.2576 20.0461 21.0437L21.8151 21.7924C22.1935 21.9569 22.6378 21.8089 22.8435 21.4468L24.3821 18.7893C24.5878 18.4273 24.4973 17.9748 24.1682 17.7197L22.6378 16.5596C22.6625 16.3704 22.6707 16.1894 22.6707 16.0001ZM16.5329 18.8798C14.945 18.8798 13.6532 17.5881 13.6532 16.0001C13.6532 14.4122 14.945 13.1204 16.5329 13.1204C18.1208 13.1204 19.4126 14.4122 19.4126 16.0001C19.4126 17.5881 18.1208 18.8798 16.5329 18.8798Z" fill="white"/>
</svg>
