<svg width="33" height="32" viewBox="0 0 33 32" fill="none" xmlns="http://www.w3.org/2000/svg">
<rect x="0.5" width="32" height="32" rx="16" fill="#599CFF"/>
<path d="M12.0553 15.1113H13.8331V16.8891H12.0553V15.1113ZM12.0553 18.6669H13.8331V20.4447H12.0553V18.6669ZM15.6109 15.1113H17.3887V16.8891H15.6109V15.1113ZM15.6109 18.6669H17.3887V20.4447H15.6109V18.6669ZM19.1665 15.1113H20.9442V16.8891H19.1665V15.1113ZM19.1665 18.6669H20.9442V20.4447H19.1665V18.6669Z" fill="white"/>
<path d="M10.2778 24.8891H22.7222C23.7027 24.8891 24.5 24.0918 24.5 23.1113V10.6669C24.5 9.68644 23.7027 8.88911 22.7222 8.88911H20.9444V7.11133H19.1667V8.88911H13.8333V7.11133H12.0556V8.88911H10.2778C9.29733 8.88911 8.5 9.68644 8.5 10.6669V23.1113C8.5 24.0918 9.29733 24.8891 10.2778 24.8891ZM22.7222 12.4447L22.7231 23.1113H10.2778V12.4447H22.7222Z" fill="white"/>
</svg>
