<svg width="32" height="32" viewBox="0 0 32 32" fill="none" xmlns="http://www.w3.org/2000/svg">
<rect width="32" height="32" rx="16" fill="#599CFF"/>
<path d="M17.4844 14.5156C17.2116 14.2426 16.8876 14.0261 16.5311 13.8784C16.1746 13.7307 15.7925 13.6547 15.4065 13.6547C15.0206 13.6547 14.6385 13.7307 14.282 13.8784C13.9255 14.0261 13.6015 14.2426 13.3287 14.5156L10.3604 17.4848C9.8094 18.0358 9.49992 18.7832 9.5 19.5625C9.50008 20.3417 9.80972 21.0891 10.3608 21.64C10.9119 22.191 11.6593 22.5005 12.4385 22.5004C13.2178 22.5003 13.9651 22.1907 14.516 21.6396L14.7942 21.3761M14.516 17.4848C14.7889 17.7577 15.1128 17.9742 15.4693 18.1219C15.8258 18.2696 16.208 18.3456 16.5939 18.3456C16.9798 18.3456 17.3619 18.2696 17.7184 18.1219C18.075 17.9742 18.3989 17.7577 18.6717 17.4848L21.6392 14.5156C22.1903 13.9646 22.4999 13.2173 22.5 12.438C22.5001 11.6588 22.1906 10.9114 21.6396 10.3603C21.0887 9.80923 20.3414 9.49959 19.5621 9.49951C18.7828 9.49943 18.0355 9.80891 17.4844 10.3599L16.5935 11.1927" stroke="white" stroke-width="1.33333" stroke-linecap="round" stroke-linejoin="round"/>
</svg>
