<svg width="32" height="32" viewBox="0 0 32 32" fill="none" xmlns="http://www.w3.org/2000/svg">
<rect width="32" height="32" rx="16" fill="#599CFF"/>
<path d="M21.6877 22.3954H10.3157C10.1003 22.3954 9.89366 22.4799 9.74133 22.6304C9.58899 22.7808 9.50341 22.9849 9.50341 23.1977C9.50341 23.4105 9.58899 23.6145 9.74133 23.765C9.89366 23.9155 10.1003 24 10.3157 24H21.6877C21.9031 24 22.1098 23.9155 22.2621 23.765C22.4144 23.6145 22.5 23.4105 22.5 23.1977C22.5 22.9849 22.4144 22.7808 22.2621 22.6304C22.1098 22.4799 21.9031 22.3954 21.6877 22.3954ZM10.3157 20.7907H10.3888L13.776 20.4859C14.1471 20.4493 14.4941 20.2879 14.7589 20.0285L22.0695 12.8077C22.3532 12.5116 22.5066 12.1165 22.4959 11.7089C22.4853 11.3014 22.3115 10.9146 22.0126 10.6334L19.787 8.43505C19.4965 8.16555 19.1158 8.01091 18.7174 8.00056C18.3191 7.9902 17.9307 8.12485 17.6263 8.37889L10.3157 15.5997C10.0531 15.8613 9.88966 16.204 9.8527 16.5705L9.50341 19.9162C9.49247 20.0337 9.50791 20.1522 9.54863 20.2631C9.58934 20.3741 9.65434 20.4748 9.73898 20.5581C9.81488 20.6324 9.90489 20.6912 10.0039 20.7312C10.1028 20.7711 10.2088 20.7913 10.3157 20.7907ZM18.6579 9.55829L20.8754 11.7486L19.2509 13.3131L17.0739 11.1629L18.6579 9.55829ZM11.4285 16.7069L16.0017 12.222L18.1949 14.3882L13.6461 18.8812L11.2092 19.1059L11.4285 16.7069Z" fill="white" stroke="#599CFF" stroke-width="0.666667"/>
</svg>
