<svg width="32" height="32" viewBox="0 0 32 32" fill="none" xmlns="http://www.w3.org/2000/svg">
<rect width="32" height="32" rx="16" fill="#599CFF"/>
<path d="M11.9067 17.0267L8.88889 20.9586V23.0857H23.5429C23.7953 23.0857 24 23.2904 24 23.5429C24 23.7953 23.7953 24 23.5429 24H8.44444C8.32657 24 8.21352 23.9518 8.13017 23.8661C8.04683 23.7804 8 23.6641 8 23.5429V8.44444C8 8.19898 8.19898 8 8.44444 8C8.6899 8 8.88889 8.19898 8.88889 8.44444V19.4834L11.2578 16.3973C11.1664 16.2136 11.1164 16.011 11.1117 15.8047C11.107 15.5984 11.1476 15.3937 11.2305 15.2058C11.3134 15.0179 11.4364 14.8516 11.5904 14.7194C11.7445 14.5872 11.9255 14.4925 12.1201 14.4422C12.3147 14.392 12.5178 14.3876 12.7143 14.4293C12.9108 14.471 13.0955 14.5578 13.2549 14.6832C13.4142 14.8086 13.544 14.9694 13.6345 15.1535C13.7251 15.3376 13.774 15.5404 13.7778 15.7467L16.7258 16.757C16.8996 16.5268 17.1403 16.3596 17.4129 16.2799C17.6855 16.2001 17.9757 16.2119 18.2413 16.3136L21.076 12.8151C20.9153 12.537 20.8553 12.2094 20.9067 11.8902C20.9581 11.571 21.1176 11.2808 21.3569 11.0709C21.5962 10.8609 21.9 10.7448 22.2145 10.7429C22.529 10.7411 22.8341 10.8536 23.0757 11.0608C23.3173 11.2679 23.48 11.5562 23.535 11.8747C23.5899 12.1933 23.5336 12.5216 23.376 12.8015C23.2184 13.0815 22.9696 13.2952 22.6736 13.4047C22.3777 13.5143 22.0536 13.5127 21.7587 13.4002L18.924 16.8992C19.0282 17.0798 19.0908 17.2825 19.1068 17.4919C19.1228 17.7013 19.0918 17.9116 19.0163 18.1067C18.9408 18.3018 18.8227 18.4765 18.6712 18.6172C18.5197 18.758 18.3387 18.8611 18.1424 18.9185C17.946 18.976 17.7394 18.9863 17.5385 18.9486C17.3377 18.911 17.1479 18.8264 16.9838 18.7014C16.8198 18.5764 16.6858 18.4143 16.5923 18.2276C16.4988 18.0409 16.4482 17.8347 16.4444 17.6247L13.4964 16.6144C13.3142 16.8558 13.0587 17.0275 12.7706 17.1022C12.4825 17.1769 12.1784 17.1504 11.9067 17.0267Z" fill="white"/>
</svg>
