<svg width="32" height="32" viewBox="0 0 32 32" fill="none" xmlns="http://www.w3.org/2000/svg">
<rect width="32" height="32" rx="16" fill="#599CFF"/>
<path d="M10 25C9.436 25 8.96167 24.8077 8.577 24.423C8.19233 24.0383 8 23.564 8 23V21.23C8 20.6777 8.44772 20.23 9 20.23H11V8C11 7.44771 11.4477 7 12 7H23C23.5523 7 24 7.44772 24 8V23C24 23.564 23.8077 24.0383 23.423 24.423C23.0383 24.8077 22.564 25 22 25H10ZM22 24C22.2833 24 22.521 23.904 22.713 23.712C22.905 23.52 23.0007 23.2827 23 23V8H12V20.23H20C20.5523 20.23 21 20.6777 21 21.23V23C21 23.2833 21.096 23.521 21.288 23.713C21.48 23.905 21.7173 24.0007 22 24ZM13.385 12.385V11.385H21.615V12.385H13.385ZM13.385 15.154V14.154H21.615V15.154H13.385ZM10 24H20V21.23H9V23C9 23.2833 9.096 23.521 9.288 23.713C9.48 23.905 9.71733 24.0007 10 24ZM10 24H9H20H10Z" fill="white"/>
</svg>
